HIERARCHY
ROOT Hips
{
	OFFSET 0.00000 0.00000 0.00000
	CHANNELS 6 Xposition Yposition Zposition Zrotation Yrotation Xrotation 
	JOINT LHipJoint
	{
		OFFSET 0 0 0
		CHANNELS 3 Zrotation Yrotation Xrotation
		JOINT LeftUpLeg
		{
			OFFSET 1.46561 -1.72757 0.83774
			CHANNELS 3 Zrotation Yrotation Xrotation
			JOINT LeftLeg
			{
				OFFSET 2.48915 -6.83890 0.00000
				CHANNELS 3 Zrotation Yrotation Xrotation
				JOINT LeftFoot
				{
					OFFSET 2.60555 -7.15868 0.00000
					CHANNELS 3 Zrotation Yrotation Xrotation
					JOINT LeftToeBase
					{
						OFFSET 0.19248 -0.52884 2.26738
						CHANNELS 3 Zrotation Yrotation Xrotation
						End Site
						{
							OFFSET 0.00000 -0.00000 1.17015
						}
					}
				}
			}
		}
	}
	JOINT RHipJoint
	{
		OFFSET 0 0 0
		CHANNELS 3 Zrotation Yrotation Xrotation
		JOINT RightUpLeg
		{
			OFFSET -1.46918 -1.72757 0.83774
			CHANNELS 3 Zrotation Yrotation Xrotation
			JOINT RightLeg
			{
				OFFSET -2.49034 -6.84216 0.00000
				CHANNELS 3 Zrotation Yrotation Xrotation
				JOINT RightFoot
				{
					OFFSET -2.65971 -7.30750 0.00000
					CHANNELS 3 Zrotation Yrotation Xrotation
					JOINT RightToeBase
					{
						OFFSET -0.19227 -0.52827 2.30785
						CHANNELS 3 Zrotation Yrotation Xrotation
						End Site
						{
							OFFSET -0.00000 -0.00000 1.18972
						}
					}
				}
			}
		}
	}
	JOINT LowerBack
	{
		OFFSET 0 0 0
		CHANNELS 3 Zrotation Yrotation Xrotation
		JOINT Spine
		{
			OFFSET 0.02432 2.19909 -0.28000
			CHANNELS 3 Zrotation Yrotation Xrotation
			JOINT Spine1
			{
				OFFSET 0.03714 2.21816 -0.15261
				CHANNELS 3 Zrotation Yrotation Xrotation
				JOINT Neck
				{
					OFFSET 0 0 0
					CHANNELS 3 Zrotation Yrotation Xrotation
					JOINT Neck1
					{
						OFFSET -0.01896 1.56165 0.21681
						CHANNELS 3 Zrotation Yrotation Xrotation
						JOINT Head
						{
							OFFSET 0.02744 1.56009 0.06764
							CHANNELS 3 Zrotation Yrotation Xrotation
							End Site
							{
								OFFSET 0.01212 1.60574 0.00298
							}
						}
					}
				}
				JOINT LeftShoulder
				{
					OFFSET 0 0 0
					CHANNELS 3 Zrotation Yrotation Xrotation
					JOINT LeftArm
					{
						OFFSET 3.05595 1.48048 -0.60794
						CHANNELS 3 Zrotation Yrotation Xrotation
						JOINT LeftForeArm
						{
							OFFSET 5.20607 -0.00000 -0.00000
							CHANNELS 3 Zrotation Yrotation Xrotation
							JOINT LeftHand
							{
								OFFSET 3.39961 -0.00000 0.00000
								CHANNELS 3 Zrotation Yrotation Xrotation
								JOINT LeftFingerBase
								{
									OFFSET 0 0 0
									CHANNELS 3 Zrotation Yrotation Xrotation
									JOINT LeftHandIndex1
									{
										OFFSET 0.51969 -0.00000 0.00000
										CHANNELS 3 Zrotation Yrotation Xrotation
										End Site
										{
											OFFSET 0.41899 -0.00000 0.00000
										}
									}
								}
								JOINT LThumb
								{
									OFFSET 0 0 0
									CHANNELS 3 Zrotation Yrotation Xrotation
									End Site
									{
										OFFSET 0.42539 -0.00000 0.42539
									}
								}
							}
						}
					}
				}
				JOINT RightShoulder
				{
					OFFSET 0 0 0
					CHANNELS 3 Zrotation Yrotation Xrotation
					JOINT RightArm
					{
						OFFSET -2.99052 1.57608 -0.69102
						CHANNELS 3 Zrotation Yrotation Xrotation
						JOINT RightForeArm
						{
							OFFSET -5.32214 -0.00000 0.00000
							CHANNELS 3 Zrotation Yrotation Xrotation
							JOINT RightHand
							{
								OFFSET -3.51208 -0.00000 0.00000
								CHANNELS 3 Zrotation Yrotation Xrotation
								JOINT RightFingerBase
								{
									OFFSET 0 0 0
									CHANNELS 3 Zrotation Yrotation Xrotation
									JOINT RightHandIndex1
									{
										OFFSET -0.58668 -0.00000 0.00000
										CHANNELS 3 Zrotation Yrotation Xrotation
										End Site
										{
											OFFSET -0.47300 -0.00000 0.00000
										}
									}
								}
								JOINT RThumb
								{
									OFFSET 0 0 0
									CHANNELS 3 Zrotation Yrotation Xrotation
									End Site
									{
										OFFSET -0.48022 -0.00000 0.48022
									}
								}
							}
						}
					}
				}
			}
		}
	}
}
MOTION
Frames: 15
Frame Time: .0083333
0.1736 17.5467 -14.3809 0 0 0 0 0 0 -21 0 0 0 0 0 0 0 0 0 0 0 0 0 0 21 0 0 0 0 0 0 0 0 0 0 0 0 0 0 0 0 0 0 0 0 0 0 -16 0 0 21 0 0 11 0 0 0 -8 0 0 0 0 0 0 0 0 0 0 0 0 0 0 0 0 0 0 0 0 8 0 0 0 0 0 0 0 0 0 0 0 0 0 0 0 0 0
0.1736 17.5467 -14.3809 -1.3102 -0.3755 9.0732 0.0000 0.0000 0.0000 -17.4804 -0.1523 -21.6622 1.5885 7.9504 22.5635 0.3488 0.4692 -11.3350 0.0694 1.6997 4.6764 0.0000 0.0000 0.0000 18.6743 4.1835 -21.5272 -1.9678 -8.7988 25.1678 -0.5198 1.0982 -13.2843 -0.2594 -3.2769 9.0506 -0.3065 -0.0748 2.5739 1.5403 -0.1633 6.5436 1.7647 -0.1426 5.3311 -1.2190 0.6513 -11.6295 0.3657 1.1448 34.8974 0.5312 0.3832 13.7506 0.0000 0.0000 0.0000 -86.0353 -2.4146 31.5992 15.0633 -24.2342 -3.2519 -0.0000 0.0000 -14.5261 26.5454 -3.5772 -1.7853 -7.1250 0.0000 -0.0000 -0.0573 25.9823 0.0264 0.0000 0.0000 0.0000 86.7716 -1.8782 17.4052 -20.4900 31.2282 -5.7832 0.0000 0.0000 18.3060 -23.2504 -25.9168 10.6352 7.1250 -0.0000 -0.0000 7.3809 -57.7013 -2.3033
0.1749 17.5462 -14.3800 -1.3193 -0.4089 9.0727 0.0000 0.0000 0.0000 -17.4778 -0.1242 -21.6748 1.5915 7.9577 22.5857 0.3496 0.4696 -11.3484 0.0700 1.7074 4.6976 0.0000 0.0000 0.0000 18.6783 4.1963 -21.5312 -1.9707 -8.8049 25.1868 -0.5206 1.1182 -13.2891 -0.2582 -3.2692 9.0290 -0.2911 -0.0626 2.5606 1.5425 -0.1474 6.5462 1.7587 -0.1341 5.3408 -1.1888 0.6488 -11.6763 0.3422 1.1421 34.9077 0.5164 0.3827 13.7660 0.0000 -0.0000 0.0000 -86.0267 -2.4411 31.6209 15.0872 -24.2675 -3.2617 -0.0000 0.0000 -14.6221 26.4071 -3.0975 -1.5370 -7.1250 0.0000 -0.0000 -0.1523 26.5223 0.0683 0.0000 -0.0000 0.0000 86.7648 -1.8773 17.4175 -20.4985 31.2382 -5.7876 0.0000 0.0000 18.3058 -23.2372 -25.8491 10.6034 7.1250 -0.0000 -0.0000 7.3649 -57.6284 -2.2854
0.1758 17.5451 -14.3794 -1.3339 -0.4179 9.0507 0.0000 0.0000 0.0000 -17.4594 -0.1363 -21.6523 1.5943 7.9644 22.6060 0.3490 0.4998 -11.3517 0.0680 1.6818 4.6271 0.0000 0.0000 0.0000 18.6900 4.2306 -21.5009 -1.9731 -8.8098 25.2021 -0.5216 1.0895 -13.3097 -0.2593 -3.2759 9.0478 -0.2783 -0.0637 2.5691 1.5499 -0.1493 6.5511 1.7592 -0.1346 5.3412 -1.1891 0.6475 -11.6710 0.3434 1.1395 34.9008 0.5165 0.3817 13.7618 0.0000 -0.0000 0.0000 -86.0220 -2.4353 31.6289 15.0421 -24.2047 -3.2432 -0.0000 0.0000 -14.5125 26.5816 -3.5941 -1.7966 -7.1250 0.0000 -0.0000 -0.0302 25.9622 0.0140 0.0000 -0.0000 0.0000 86.7590 -1.8520 17.4201 -20.4768 31.2125 -5.7764 0.0000 0.0000 18.3153 -23.2038 -25.8693 10.5943 7.1250 -0.0000 -0.0000 7.4102 -57.6418 -2.3019
0.1771 17.5446 -14.3781 -1.3260 -0.4196 9.0428 0.0000 0.0000 0.0000 -17.4737 -0.1316 -21.6491 1.5969 7.9706 22.6248 0.3507 0.4941 -11.3768 0.0689 1.6935 4.6593 0.0000 0.0000 0.0000 18.6766 4.2186 -21.4995 -1.9756 -8.8150 25.2183 -0.5225 1.1044 -13.3180 -0.2592 -3.2755 9.0468 -0.2788 -0.0667 2.5569 1.5511 -0.1535 6.5526 1.7607 -0.1369 5.3499 -1.1856 0.6494 -11.6844 0.3469 1.1403 34.9166 0.5176 0.3828 13.7719 0.0000 0.0000 0.0000 -86.0217 -2.4492 31.6140 15.0440 -24.2073 -3.2440 -0.0000 0.0000 -14.5081 26.4715 -3.3619 -1.6727 -7.1250 0.0000 -0.0000 -0.1086 26.2251 0.0494 0.0000 0.0000 0.0000 86.7599 -1.8430 17.4099 -20.4854 31.2227 -5.7809 0.0000 0.0000 18.3182 -23.1621 -25.9420 10.6005 7.1250 -0.0000 -0.0000 7.4883 -57.7077 -2.3383
0.1784 17.5440 -14.3770 -1.3263 -0.4270 9.0310 0.0000 0.0000 0.0000 -17.4769 -0.1311 -21.6403 1.5996 7.9768 22.6438 0.3515 0.5035 -11.3920 0.0686 1.6902 4.6501 0.0000 0.0000 0.0000 18.6720 4.2234 -21.4890 -1.9778 -8.8196 25.2327 -0.5234 1.1048 -13.3286 -0.2581 -3.2686 9.0275 -0.2743 -0.0669 2.5517 1.5550 -0.1540 6.5549 1.7623 -0.1370 5.3554 -1.1875 0.6475 -11.6919 0.3544 1.1354 34.9213 0.5203 0.3813 13.7756 0.0000 -0.0000 0.0000 -86.0197 -2.4546 31.6210 15.0315 -24.1900 -3.2389 -0.0000 0.0000 -14.4875 26.4859 -3.3936 -1.6894 -7.1250 0.0000 -0.0000 -0.0984 26.1893 0.0449 0.0000 -0.0000 0.0000 86.7562 -1.8316 17.4069 -20.4843 31.2214 -5.7803 0.0000 0.0000 18.3183 -23.1417 -25.9715 10.6013 7.1250 -0.0000 -0.0000 7.5238 -57.7335 -2.3541
0.1796 17.5433 -14.3760 -1.3269 -0.4312 9.0191 0.0000 0.0000 0.0000 -17.4804 -0.1305 -21.6296 1.6016 7.9817 22.6584 0.3520 0.5120 -11.4046 0.0681 1.6838 4.6325 0.0000 0.0000 0.0000 18.6679 4.2262 -21.4788 -1.9801 -8.8244 25.2477 -0.5242 1.1044 -13.3397 -0.2568 -3.2602 9.0039 -0.2691 -0.0682 2.5469 1.5597 -0.1560 6.5567 1.7642 -0.1380 5.3601 -1.1967 0.6447 -11.6929 0.3689 1.1286 34.9234 0.5267 0.3790 13.7766 0.0000 -0.0000 0.0000 -86.0183 -2.4561 31.6312 15.0196 -24.1735 -3.2340 -0.0000 0.0000 -14.4671 26.5197 -3.4697 -1.7299 -7.1250 0.0000 -0.0000 -0.0743 26.1031 0.0340 0.0000 -0.0000 0.0000 86.7529 -1.8216 17.4015 -20.4840 31.2210 -5.7801 0.0000 0.0000 18.3159 -23.1307 -26.0066 10.6088 7.1250 -0.0000 -0.0000 7.5516 -57.7674 -2.3691
0.1810 17.5427 -14.3749 -1.3281 -0.4348 9.0079 0.0000 0.0000 0.0000 -17.4840 -0.1276 -21.6211 1.6037 7.9865 22.6732 0.3527 0.5177 -11.4168 0.0675 1.6765 4.6125 0.0000 0.0000 0.0000 18.6645 4.2267 -21.4699 -1.9822 -8.8289 25.2615 -0.5250 1.1054 -13.3493 -0.2554 -3.2513 8.9791 -0.2637 -0.0695 2.5423 1.5653 -0.1582 6.5581 1.7669 -0.1389 5.3642 -1.2096 0.6415 -11.6939 0.3875 1.1206 34.9252 0.5352 0.3763 13.7774 -0.0000 -0.0000 0.0000 -86.0179 -2.4553 31.6426 15.0146 -24.1664 -3.2319 -0.0000 0.0000 -14.4578 26.5447 -3.5230 -1.7583 -7.1250 0.0000 -0.0000 -0.0566 26.0429 0.0260 -0.0000 -0.0000 0.0000 86.7479 -1.8136 17.3960 -20.4863 31.2238 -5.7813 0.0000 0.0000 18.3085 -23.1302 -26.0341 10.6187 7.1250 -0.0000 -0.0000 7.5646 -57.7956 -2.3783
0.1823 17.5422 -14.3739 -1.3287 -0.4379 8.9977 0.0000 0.0000 0.0000 -17.4885 -0.1240 -21.6138 1.6056 7.9910 22.6868 0.3532 0.5215 -11.4274 0.0668 1.6674 4.5873 0.0000 0.0000 0.0000 18.6603 4.2280 -21.4612 -1.9842 -8.8330 25.2744 -0.5257 1.1035 -13.3589 -0.2540 -3.2425 8.9546 -0.2583 -0.0705 2.5376 1.5706 -0.1599 6.5588 1.7694 -0.1397 5.3678 -1.2201 0.6380 -11.6921 0.4047 1.1120 34.9251 0.5427 0.3735 13.7768 -0.0000 -0.0000 0.0000 -86.0161 -2.4505 31.6585 15.0144 -24.1662 -3.2318 -0.0000 0.0000 -14.4530 26.5764 -3.5925 -1.7954 -7.1250 0.0000 -0.0000 -0.0341 25.9641 0.0157 -0.0000 -0.0000 0.0000 86.7441 -1.8046 17.3845 -20.4869 31.2244 -5.7816 0.0000 0.0000 18.3032 -23.1405 -26.0438 10.6275 7.1250 -0.0000 -0.0000 7.5578 -57.8078 -2.3784
0.1837 17.5417 -14.3728 -1.3286 -0.4414 8.9882 0.0000 0.0000 0.0000 -17.4941 -0.1179 -21.6067 1.6071 7.9947 22.6979 0.3538 0.5213 -11.4372 0.0663 1.6616 4.5714 0.0000 0.0000 0.0000 18.6558 4.2287 -21.4530 -1.9860 -8.8369 25.2864 -0.5263 1.1011 -13.3680 -0.2530 -3.2365 8.9380 -0.2534 -0.0713 2.5332 1.5754 -0.1611 6.5586 1.7716 -0.1402 5.3701 -1.2288 0.6348 -11.6884 0.4209 1.1037 34.9246 0.5495 0.3709 13.7757 0.0000 -0.0000 0.0000 -86.0137 -2.4436 31.6740 15.0215 -24.1761 -3.2347 -0.0000 0.0000 -14.4541 26.5910 -3.6301 -1.8153 -7.1250 0.0000 -0.0000 -0.0240 25.9216 0.0111 0.0000 -0.0000 0.0000 86.7408 -1.7964 17.3690 -20.4885 31.2264 -5.7825 0.0000 0.0000 18.2986 -23.1508 -26.0520 10.6357 7.1250 -0.0000 -0.0000 7.5503 -57.8187 -2.3780
0.1851 17.5413 -14.3718 -1.3267 -0.4445 8.9808 0.0000 0.0000 0.0000 -17.5016 -0.1120 -21.6012 1.6084 7.9976 22.7069 0.3544 0.5195 -11.4459 0.0660 1.6578 4.5609 0.0000 0.0000 0.0000 18.6492 4.2292 -21.4465 -1.9877 -8.8404 25.2972 -0.5269 1.0984 -13.3768 -0.2529 -3.2359 8.9362 -0.2498 -0.0717 2.5275 1.5794 -0.1620 6.5578 1.7737 -0.1406 5.3726 -1.2330 0.6318 -11.6858 0.4324 1.0963 34.9253 0.5537 0.3686 13.7753 -0.0000 0.0000 0.0000 -86.0103 -2.4360 31.6887 15.0340 -24.1935 -3.2399 -0.0000 0.0000 -14.4573 26.5937 -3.6440 -1.8224 -7.1250 0.0000 -0.0000 -0.0223 25.9060 0.0103 -0.0000 0.0000 0.0000 86.7388 -1.7840 17.3467 -20.4872 31.2249 -5.7818 0.0000 0.0000 18.2992 -23.1590 -26.0549 10.6409 7.1250 -0.0000 -0.0000 7.5427 -57.8235 -2.3764
0.1865 17.5410 -14.3707 -1.3205 -0.4495 8.9718 0.0000 0.0000 0.0000 -17.5144 -0.1044 -21.5917 1.6092 7.9996 22.7128 0.3551 0.5173 -11.4548 0.0661 1.6582 4.5619 0.0000 0.0000 0.0000 18.6376 4.2295 -21.4374 -1.9892 -8.8435 25.3070 -0.5276 1.0959 -13.3856 -0.2528 -3.2353 8.9347 -0.2500 -0.0718 2.5240 1.5814 -0.1622 6.5565 1.7759 -0.1408 5.3732 -1.2354 0.6291 -11.6810 0.4424 1.0891 34.9258 0.5571 0.3666 13.7744 0.0000 -0.0000 0.0000 -86.0064 -2.4264 31.7022 15.0472 -24.2119 -3.2453 -0.0000 0.0000 -14.4608 26.5988 -3.6618 -1.8317 -7.1250 0.0000 -0.0000 -0.0189 25.8860 0.0088 0.0000 -0.0000 0.0000 86.7378 -1.7712 17.3221 -20.4849 31.2221 -5.7806 0.0000 0.0000 18.3050 -23.1637 -26.0608 10.6454 7.1250 -0.0000 -0.0000 7.5403 -57.8307 -2.3770
0.1878 17.5407 -14.3696 -1.3159 -0.4543 8.9635 0.0000 0.0000 0.0000 -17.5248 -0.0971 -21.5819 1.6096 8.0007 22.7162 0.3556 0.5151 -11.4628 0.0661 1.6590 4.5641 0.0000 0.0000 0.0000 18.6275 4.2331 -21.4269 -1.9904 -8.8460 25.3148 -0.5282 1.0911 -13.3948 -0.2529 -3.2358 8.9358 -0.2482 -0.0724 2.5207 1.5835 -0.1631 6.5546 1.7771 -0.1412 5.3731 -1.2364 0.6260 -11.6795 0.4493 1.0823 34.9294 0.5590 0.3643 13.7757 -0.0000 0.0000 0.0000 -86.0029 -2.4186 31.7103 15.0596 -24.2291 -3.2504 -0.0000 0.0000 -14.4599 26.6047 -3.6746 -1.8386 -7.1250 0.0000 -0.0000 -0.0147 25.8714 0.0068 -0.0000 0.0000 0.0000 86.7371 -1.7564 17.2987 -20.4815 31.2180 -5.7788 0.0000 0.0000 18.3133 -23.1677 -26.0699 10.6508 7.1250 -0.0000 -0.0000 7.5400 -57.8408 -2.3787
0.1891 17.5404 -14.3685 -1.3091 -0.4593 8.9542 0.0000 0.0000 0.0000 -17.5381 -0.0888 -21.5696 1.6098 8.0010 22.7172 0.3561 0.5128 -11.4697 0.0663 1.6614 4.5709 0.0000 0.0000 0.0000 18.6148 4.2368 -21.4141 -1.9912 -8.8478 25.3204 -0.5287 1.0863 -13.4035 -0.2528 -3.2350 8.9337 -0.2488 -0.0732 2.5188 1.5845 -0.1642 6.5523 1.7784 -0.1418 5.3717 -1.2388 0.6218 -11.6775 0.4570 1.0740 34.9328 0.5613 0.3614 13.7768 0.0000 0.0000 0.0000 -86.0001 -2.4119 31.7139 15.0700 -24.2436 -3.2546 -0.0000 0.0000 -14.4604 26.6101 -3.6794 -1.8414 -7.1250 0.0000 -0.0000 -0.0107 25.8659 0.0050 0.0000 0.0000 0.0000 86.7355 -1.7421 17.2788 -20.4791 31.2152 -5.7776 0.0000 0.0000 18.3226 -23.1689 -26.0806 10.6554 7.1250 -0.0000 -0.0000 7.5436 -57.8521 -2.3819
0.1905 17.5402 -14.3674 -1.3043 -0.4645 8.9450 0.0000 0.0000 0.0000 -17.5491 -0.0798 -21.5572 1.6098 8.0010 22.7171 0.3566 0.5101 -11.4766 0.0665 1.6642 4.5786 0.0000 0.0000 0.0000 18.6043 4.2411 -21.3992 -1.9916 -8.8486 25.3229 -0.5293 1.0814 -13.4118 -0.2526 -3.2336 8.9297 -0.2465 -0.0744 2.5163 1.5856 -0.1658 6.5502 1.7782 -0.1425 5.3710 -1.2421 0.6170 -11.6723 0.4630 1.0654 34.9336 0.5629 0.3580 13.7760 -0.0000 -0.0000 0.0000 -85.9988 -2.4080 31.7091 15.0784 -24.2553 -3.2581 -0.0000 0.0000 -14.4583 26.6211 -3.6810 -1.8431 -7.1250 0.0000 -0.0000 -0.0024 25.8636 0.0011 -0.0000 -0.0000 0.0000 86.7337 -1.7270 17.2623 -20.4779 31.2138 -5.7770 0.0000 0.0000 18.3308 -23.1712 -26.0901 10.6600 7.1250 -0.0000 -0.0000 7.5455 -57.8625 -2.3844
